Coordinates
version=1
nRows=5
nColumns=42
inDegrees=yes

Units are S.I. units (second, meters, Newtons, ...)
If the header above contains a line with 'inDegrees', this indicates whether rotational values are in degrees (yes) or radians (no).

endheader
time	pelvis_tilt	pelvis_list	pelvis_rotation	pelvis_tx	pelvis_ty	pelvis_tz	hip_flexion_r	hip_adduction_r	hip_rotation_r	knee_angle_r	knee_adduction_r	knee_angle_r_beta	ankle_angle_r	subtalar_angle_r	mtp_angle_r	hip_flexion_l	hip_adduction_l	hip_rotation_l	knee_angle_l	knee_adduction_l	knee_angle_l_beta	ankle_angle_l	subtalar_angle_l	mtp_angle_l	lumbar_extension	lumbar_bending	lumbar_rotation	arm_flex_r	arm_add_r	arm_rot_r	elbow_flex_r	pro_sup_r	wrist_flex_r	wrist_dev_r	arm_flex_l	arm_add_l	arm_rot_l	elbow_flex_l	pro_sup_l	wrist_flex_l	wrist_dev_l
      0.00000000	      6.76226519	      2.00541333	     -4.72327779	     -2.81953324	      0.83444277	      0.11444559	    -17.61585649	      0.88151049	    -28.90303684	     35.08041755	    -18.78553580	      0.61226879	     10.69433523	     27.65743382	     -9.53223373	     26.54736093	      7.80615168	     -8.63495275	     33.20438379	     -9.89434546	      0.57952582	      9.77930918	     -2.10151563	     -9.53223373	    -26.52551114	     -5.38563744	      7.51592591	     15.64817982	    -16.08493196	      5.84312605	     51.14663093	     90.00000001	      0.00000000	      0.00000000	     -7.46972044	    -11.53420689	     18.66436296	     26.27535317	     90.00000001	      0.00000000	      0.00000000
      0.01000000	      6.88900547	      2.58644329	     -4.51487197	     -2.80565658	      0.83587644	      0.11352713	    -16.72834251	     -0.11935317	    -29.66202621	     37.73683893	    -19.76531435	      0.65863209	      6.63713904	     26.44824646	     -9.50351157	     25.82357863	      8.70404647	     -8.32050573	     34.04260250	     -9.75083622	      0.59415550	     10.69764806	     -2.48102488	     -9.50351157	    -26.65696886	     -5.98000648	      7.16250634	     15.17073355	    -15.87267995	      5.79972922	     50.21882657	     90.00000001	      0.00000000	      0.00000000	     -6.65355187	    -11.77447191	     18.80538008	     26.38298017	     90.00000001	      0.00000000	      0.00000000
      0.02000000	      6.88387535	      2.97525678	     -4.10391736	     -2.79255802	      0.83768594	      0.11228937	    -15.46950106	     -0.72940981	    -29.71542583	     40.82860999	    -20.37460023	      0.71259367	      2.59677560	     22.12711690	     -9.37018986	     25.05229406	      9.49333554	     -7.34527963	     34.57643578	     -9.36457888	      0.60347265	     11.00619973	     -4.08136331	     -9.37018986	    -26.76166505	     -6.25434041	      6.74564982	     14.79113690	    -15.65679036	      5.63471808	     49.08729657	     90.00000001	      0.00000000	      0.00000000	     -5.64492637	    -12.00843922	     19.19829332	     26.50305463	     90.00000001	      0.00000000	      0.00000000
      0.03000000	      6.89185447	      3.36176242	     -3.74541607	     -2.77948000	      0.83973820	      0.11102584	    -14.00019196	     -1.48993659	    -30.26106192	     43.98369698	    -21.23599975	      0.76766033	     -1.10399342	     18.86406512	     -9.25741287	     24.08906732	     10.26249704	     -7.07886523	     34.65453172	     -9.36948352	      0.60483568	     11.78857745	     -4.28581406	     -9.25741287	    -26.84303794	     -6.49506505	      6.35346138	     14.41551291	    -15.52204087	      5.71414588	     47.87881318	     90.00000001	      0.00000000	      0.00000000	     -4.64588991	    -12.13656005	     19.04862229	     26.72979274	     90.00000001	      0.00000000	      0.00000000
      0.04000000	      6.94228321	      3.75735224	     -3.46019954	     -2.76633269	      0.84204525	      0.10989287	    -12.41649178	     -2.38700569	    -31.39385447	     46.97918248	    -22.51751982	      0.81994141	     -4.08625909	     17.44350793	     -9.23682172	     22.87957374	     10.97016375	     -7.05684785	     34.37555856	     -9.40206195	      0.59996668	     12.83823984	     -4.07236350	     -9.23682172	    -26.92994288	     -6.75344067	      6.03851721	     13.97804295	    -15.44016945	      5.89372136	     46.70732282	     90.00000001	      0.00000000	      0.00000000	     -3.61587594	    -12.28349512	     18.91352278	     27.07494095	     90.00000001	      0.00000000	      0.00000000
